<svg xmlns="http://www.w3.org/2000/svg" viewBox="0 0 2320 3336" width="2320" height="3336"><defs><style>text{font-family:monospace;fill:#ccc}.bright{fill:#ffd700}.faint{fill:#aaa}.star-label{font-size:28px;fill:#ffd700}.planet{fill:#4fc3f7;font-size:36px}.planet-label{font-size:24px;fill:#4fc3f7}.cardinal{font-size:40px;fill:#888;text-anchor:middle;dominant-baseline:central}.legend{font-size:22px;fill:#999}.title{font-size:26px;fill:#999;text-anchor:middle}.table-header{font-size:28px;fill:#bbb;text-anchor:middle}.table-text{font-size:26px;fill:#999}.table-hdr-r{font-size:26px;fill:#bbb;text-anchor:end}.table-r{font-size:26px;fill:#999;text-anchor:end}</style></defs><rect width="2320" height="3336" fill="#0a0a1a"/><text class="title" x="1160" y="60">VIEW FROM 33 DEGREES 46 MINUTES NORTH, 117 DEGREES 50 MINUTES WEST, ON THURSDAY 1974/5/16 AT 5:00 AM</text><g id="crosshairs" stroke="#333" stroke-width="1"><line x1="80" y1="1160" x2="2240" y2="1160"/><line x1="1160" y1="80" x2="1160" y2="2240"/></g><circle id="horizon" cx="1160" cy="1160" r="1080" fill="none" stroke="#555" stroke-width="2"/><text class="cardinal" x="1160" y="100">N</text><text class="cardinal" x="1160" y="2275">S</text><text class="cardinal" x="105" y="1160">E</text><text class="cardinal" x="2265" y="1160">W</text><circle class="faint" cx="191" cy="926" r="3"/><circle class="bright" cx="1749" cy="464" r="8"/><circle class="faint" cx="1751" cy="582" r="3"/><circle class="faint" cx="1618" cy="558" r="3"/><circle class="faint" cx="1785" cy="421" r="3"/><circle class="faint" cx="1865" cy="614" r="3"/><circle class="bright" cx="967" cy="1281" r="8"/><circle class="faint" cx="924" cy="1054" r="3"/><circle class="faint" cx="972" cy="1091" r="3"/><circle class="faint" cx="874" cy="1112" r="3"/><circle class="faint" cx="918" cy="1191" r="3"/><circle class="faint" cx="897" cy="1323" r="3"/><circle class="faint" cx="1014" cy="1296" r="3"/><circle class="faint" cx="953" cy="1166" r="3"/><circle class="faint" cx="1133" cy="84" r="3"/><circle class="faint" cx="1065" cy="142" r="3"/><circle class="faint" cx="1173" cy="159" r="3"/><circle class="faint" cx="1236" cy="158" r="3"/><circle class="faint" cx="1275" cy="230" r="3"/><circle class="faint" cx="1185" cy="2109" r="3"/><circle class="faint" cx="1275" cy="2140" r="3"/><circle class="faint" cx="1029" cy="2190" r="3"/><circle class="faint" cx="980" cy="2085" r="3"/><circle class="faint" cx="861" cy="2007" r="3"/><circle class="faint" cx="943" cy="1917" r="3"/><circle class="faint" cx="1075" cy="1921" r="3"/><circle class="faint" cx="994" cy="1995" r="3"/><circle class="faint" cx="845" cy="396" r="3"/><circle class="faint" cx="953" cy="436" r="3"/><circle class="faint" cx="1108" cy="430" r="3"/><circle class="faint" cx="837" cy="273" r="3"/><circle class="faint" cx="979" cy="312" r="3"/><circle class="bright" cx="2018" cy="1195" r="8"/><circle class="faint" cx="2031" cy="1130" r="3"/><circle class="faint" cx="1740" cy="1241" r="3"/><circle class="faint" cx="1874" cy="1212" r="3"/><circle class="faint" cx="1742" cy="1154" r="3"/><circle class="faint" cx="810" cy="1160" r="3"/><circle class="faint" cx="753" cy="1144" r="3"/><circle class="faint" cx="1206" cy="1746" r="3"/><circle class="faint" cx="1256" cy="1676" r="3"/><circle class="faint" cx="1217" cy="1665" r="3"/><circle class="faint" cx="1274" cy="1736" r="3"/><circle class="faint" cx="1150" cy="1116" r="3"/><circle class="bright" cx="559" cy="416" r="8"/><circle class="faint" cx="329" cy="707" r="3"/><circle class="faint" cx="476" cy="477" r="3"/><circle class="faint" cx="569" cy="573" r="3"/><circle class="faint" cx="406" cy="578" r="3"/><circle class="faint" cx="1079" cy="853" r="3"/><circle class="faint" cx="775" cy="797" r="3"/><circle class="faint" cx="739" cy="763" r="3"/><circle class="faint" cx="884" cy="584" r="3"/><circle class="faint" cx="916" cy="542" r="3"/><circle class="faint" cx="917" cy="728" r="3"/><circle class="faint" cx="920" cy="800" r="3"/><circle class="faint" cx="923" cy="844" r="3"/><circle class="faint" cx="968" cy="868" r="3"/><circle class="faint" cx="1175" cy="807" r="3"/><circle class="faint" cx="1232" cy="802" r="3"/><circle class="faint" cx="800" cy="774" r="3"/><circle class="faint" cx="797" cy="733" r="3"/><circle class="faint" cx="787" cy="635" r="3"/><circle class="faint" cx="956" cy="625" r="3"/><circle class="faint" cx="1790" cy="895" r="3"/><circle class="bright" cx="1806" cy="952" r="8"/><circle class="faint" cx="2091" cy="902" r="3"/><circle class="faint" cx="1920" cy="957" r="3"/><circle class="faint" cx="1965" cy="832" r="3"/><circle class="faint" cx="2062" cy="766" r="3"/><circle class="faint" cx="1980" cy="1010" r="3"/><circle class="faint" cx="508" cy="1169" r="3"/><circle class="faint" cx="661" cy="1155" r="3"/><circle class="faint" cx="669" cy="1188" r="3"/><circle class="faint" cx="577" cy="1058" r="3"/><circle class="faint" cx="651" cy="1021" r="3"/><circle class="faint" cx="694" cy="1041" r="3"/><circle class="faint" cx="738" cy="972" r="3"/><circle class="faint" cx="706" cy="830" r="3"/><circle class="faint" cx="531" cy="974" r="3"/><circle class="faint" cx="666" cy="945" r="3"/><circle class="faint" cx="823" cy="933" r="3"/><circle class="faint" cx="1735" cy="1514" r="3"/><circle class="faint" cx="1081" cy="1743" r="3"/><circle class="faint" cx="1778" cy="1304" r="3"/><circle class="faint" cx="1738" cy="1368" r="3"/><circle class="faint" cx="1500" cy="1646" r="3"/><circle class="faint" cx="945" cy="1785" r="3"/><circle class="bright" cx="1556" cy="1309" r="8"/><circle class="faint" cx="1305" cy="1333" r="3"/><circle class="faint" cx="1503" cy="1237" r="3"/><circle class="faint" cx="1377" cy="1263" r="3"/><circle class="faint" cx="1567" cy="1169" r="3"/><circle class="faint" cx="1499" cy="1200" r="3"/><circle class="faint" cx="1543" cy="1259" r="3"/><circle class="faint" cx="1386" cy="1313" r="3"/><circle class="faint" cx="1542" cy="1154" r="3"/><circle class="faint" cx="1501" cy="1353" r="3"/><circle class="faint" cx="823" cy="1644" r="3"/><circle class="faint" cx="755" cy="1555" r="3"/><circle class="faint" cx="774" cy="1760" r="3"/><circle class="faint" cx="690" cy="1614" r="3"/><circle class="faint" cx="663" cy="1820" r="3"/><circle class="faint" cx="848" cy="2095" r="3"/><circle class="faint" cx="793" cy="2027" r="3"/><circle class="faint" cx="678" cy="2001" r="3"/><circle class="faint" cx="721" cy="1990" r="3"/><circle class="faint" cx="721" cy="2059" r="3"/><circle class="faint" cx="1567" cy="1041" r="3"/><circle class="bright" cx="553" cy="774" r="8"/><circle class="faint" cx="469" cy="783" r="3"/><circle class="faint" cx="446" cy="765" r="3"/><circle class="faint" cx="104" cy="1082" r="3"/><circle class="faint" cx="528" cy="764" r="3"/><circle class="faint" cx="439" cy="1156" r="3"/><circle class="faint" cx="357" cy="1239" r="3"/><circle class="faint" cx="598" cy="1452" r="3"/><circle class="faint" cx="582" cy="1461" r="3"/><circle class="faint" cx="502" cy="1522" r="3"/><circle class="faint" cx="368" cy="1570" r="3"/><circle class="faint" cx="297" cy="1717" r="3"/><circle class="faint" cx="525" cy="1250" r="3"/><circle class="faint" cx="207" cy="1421" r="3"/><circle class="faint" cx="1591" cy="173" r="3"/><circle class="faint" cx="1503" cy="173" r="3"/><circle class="faint" cx="1654" cy="202" r="3"/><circle class="faint" cx="1493" cy="142" r="3"/><circle class="faint" cx="2069" cy="1697" r="3"/><circle class="bright" cx="494" cy="1759" r="8"/><circle class="faint" cx="586" cy="1669" r="3"/><circle class="faint" cx="598" cy="1711" r="3"/><circle class="faint" cx="413" cy="1891" r="3"/><circle class="faint" cx="599" cy="1762" r="3"/><circle class="faint" cx="524" cy="1749" r="3"/><circle class="faint" cx="469" cy="1787" r="3"/><circle class="faint" cx="763" cy="1235" r="3"/><circle class="faint" cx="168" cy="1273" r="3"/><circle class="faint" cx="2042" cy="542" r="3"/><circle class="faint" cx="1285" cy="867" r="3"/><circle class="faint" cx="1306" cy="917" r="3"/><circle class="faint" cx="1241" cy="962" r="3"/><circle class="faint" cx="1207" cy="934" r="3"/><circle class="faint" cx="1155" cy="947" r="3"/><circle class="faint" cx="1113" cy="955" r="3"/><circle class="faint" cx="1071" cy="1004" r="3"/><circle class="faint" cx="1447" cy="898" r="3"/><circle class="faint" cx="1518" cy="893" r="3"/><circle class="faint" cx="1421" cy="1032" r="3"/><circle class="faint" cx="1380" cy="849" r="3"/><circle class="faint" cx="1449" cy="760" r="3"/><circle class="faint" cx="1263" cy="1016" r="3"/><circle class="faint" cx="1330" cy="1033" r="3"/><circle class="faint" cx="1375" cy="799" r="3"/><circle class="faint" cx="1164" cy="573" r="3"/><circle class="faint" cx="1074" cy="742" r="3"/><circle class="faint" cx="1041" cy="752" r="3"/><circle class="faint" cx="1121" cy="596" r="3"/><circle class="faint" cx="1080" cy="633" r="3"/><circle class="faint" cx="732" cy="1236" r="3"/><circle class="faint" cx="1034" cy="691" r="3"/><circle class="faint" cx="1507" cy="2134" r="3"/><circle class="bright" cx="1066" cy="1603" r="8"/><circle class="faint" cx="1183" cy="1501" r="3"/><circle class="faint" cx="1147" cy="1452" r="3"/><circle class="faint" cx="1132" cy="1376" r="3"/><circle class="faint" cx="1046" cy="1489" r="3"/><text class="star-label" x="1761" y="452">Capella</text><text class="star-label" x="979" y="1269">Arcturus</text><text class="star-label" x="2030" y="1183">Procyon</text><text class="star-label" x="571" y="404">Deneb</text><text class="star-label" x="1818" y="940">Pollux</text><text class="star-label" x="1568" y="1297">Regulus</text><text class="star-label" x="565" y="762">Vega</text><text class="star-label" x="506" y="1747">aSco</text><text class="star-label" x="1078" y="1591">Spica</text><text class="planet" x="1923" y="912">♂</text><text class="planet-label" x="1943" y="896">Mars</text><text class="planet" x="2045" y="784">♄</text><text class="planet-label" x="2065" y="768">Saturn</text><text class="planet" x="1083" y="1566">⛢</text><text class="planet-label" x="1103" y="1550">Uranus</text><text class="planet" x="1182" y="1346">♇</text><text class="planet-label" x="1202" y="1330">Pluto</text><circle cx="1160" cy="1160" r="4" fill="none" stroke="#666" stroke-width="1.5"/><g class="legend" transform="translate(120,2250)"><circle class="bright" cx="0" cy="0" r="8"/><text x="16" y="6">bright</text><circle class="faint" cx="120" cy="0" r="3"/><text x="130" y="6">faint</text><circle cx="230" cy="0" r="4" fill="none" stroke="#666" stroke-width="1.5"/><text x="242" y="6">zenith</text><text x="350" y="6" fill="#555">— horizon</text></g><text class="table-header" x="1160" y="2360">POSITION OF SUN, MOON AND PLANETS</text><g class="table-text"><text x="140" y="2410">BODY</text><text class="table-hdr-r" x="420" y="2410">RA h</text><text class="table-hdr-r" x="520" y="2410">RA m</text><text class="table-hdr-r" x="640" y="2410">DEC</text><text class="table-hdr-r" x="760" y="2410">ALT</text><text class="table-hdr-r" x="870" y="2410">AZ</text><text class="table-hdr-r" x="1000" y="2410">MAP X</text><text class="table-hdr-r" x="1130" y="2410">MAP Y</text><line x1="120" y1="2418" x2="1160" y2="2418" stroke="#555" stroke-width="1"/><text x="140" y="2450">☾ Moon</text><text class="table-r" x="420" y="2450">23</text><text class="table-r" x="520" y="2450">7</text><text class="table-r" x="640" y="2450">0</text><text x="140" y="2484">☉ Sun</text><text class="table-r" x="420" y="2484">3</text><text class="table-r" x="520" y="2484">30</text><text class="table-r" x="640" y="2484">19</text><text x="140" y="2518">☿ Mercury</text><text class="table-r" x="420" y="2518">4</text><text class="table-r" x="520" y="2518">25</text><text class="table-r" x="640" y="2518">23</text><text x="140" y="2552">♀ Venus</text><text class="table-r" x="420" y="2552">0</text><text class="table-r" x="520" y="2552">50</text><text class="table-r" x="640" y="2552">3</text><text x="140" y="2586">♂ Mars</text><text class="table-r" x="420" y="2586">7</text><text class="table-r" x="520" y="2586">8</text><text class="table-r" x="640" y="2586">24</text><text class="table-r" x="760" y="2586">17</text><text class="table-r" x="870" y="2586">288</text><text class="table-r" x="1000" y="2586">0.71</text><text class="table-r" x="1130" y="2586">0.23</text><text x="140" y="2620">♃ Jupiter</text><text class="table-r" x="420" y="2620">23</text><text class="table-r" x="520" y="2620">2</text><text class="table-r" x="640" y="2620">¯7</text><text x="140" y="2654">♄ Saturn</text><text class="table-r" x="420" y="2654">6</text><text class="table-r" x="520" y="2654">20</text><text class="table-r" x="640" y="2654">23</text><text class="table-r" x="760" y="2654">7</text><text class="table-r" x="870" y="2654">293</text><text class="table-r" x="1000" y="2654">0.82</text><text class="table-r" x="1130" y="2654">0.35</text><text x="140" y="2688">⛢ Uranus</text><text class="table-r" x="420" y="2688">13</text><text class="table-r" x="520" y="2688">18</text><text class="table-r" x="640" y="2688">¯8</text><text class="table-r" x="760" y="2688">48</text><text class="table-r" x="870" y="2688">169</text><text class="table-r" x="1000" y="2688">¯0.07</text><text class="table-r" x="1130" y="2688">¯0.38</text><text x="140" y="2722">♆ Neptune</text><text class="table-r" x="420" y="2722">19</text><text class="table-r" x="520" y="2722">17</text><text class="table-r" x="640" y="2722">¯21</text><text x="140" y="2756">♇ Pluto</text><text class="table-r" x="420" y="2756">12</text><text class="table-r" x="520" y="2756">40</text><text class="table-r" x="640" y="2756">14</text><text class="table-r" x="760" y="2756">70</text><text class="table-r" x="870" y="2756">187</text><text class="table-r" x="1000" y="2756">0.02</text><text class="table-r" x="1130" y="2756">¯0.17</text></g><text class="table-text" x="140" y="2800">MOON PHASE 0.3 WANING</text><text class="table-header" x="1160" y="2860">BRIGHT STARS</text><g class="table-text"><text x="140" y="2910">STAR</text><text class="table-hdr-r" x="420" y="2910">ALT</text><text class="table-hdr-r" x="520" y="2910">AZ</text><text class="table-hdr-r" x="640" y="2910">MAP X</text><text class="table-hdr-r" x="760" y="2910">MAP Y</text><line x1="120" y1="2918" x2="800" y2="2918" stroke="#555" stroke-width="1"/><text x="140" y="2950">Capella</text><text class="table-r" x="420" y="2950">10</text><text class="table-r" x="520" y="2950">320</text><text class="table-r" x="640" y="2950">0.55</text><text class="table-r" x="760" y="2950">0.64</text><text x="140" y="2984">Arcturus</text><text class="table-r" x="420" y="2984">66</text><text class="table-r" x="520" y="2984">122</text><text class="table-r" x="640" y="2984">¯0.18</text><text class="table-r" x="760" y="2984">¯0.11</text><text x="140" y="3018">Procyon</text><text class="table-r" x="420" y="3018">13</text><text class="table-r" x="520" y="3018">268</text><text class="table-r" x="640" y="3018">0.79</text><text class="table-r" x="760" y="3018">¯0.03</text><text x="140" y="3052">Deneb</text><text class="table-r" x="420" y="3052">7</text><text class="table-r" x="520" y="3052">39</text><text class="table-r" x="640" y="3052">¯0.56</text><text class="table-r" x="760" y="3052">0.69</text><text x="140" y="3086">Pollux</text><text class="table-r" x="420" y="3086">26</text><text class="table-r" x="520" y="3086">288</text><text class="table-r" x="640" y="3086">0.6</text><text class="table-r" x="760" y="3086">0.19</text><text x="140" y="3120">Regulus</text><text class="table-r" x="420" y="3120">47</text><text class="table-r" x="520" y="3120">249</text><text class="table-r" x="640" y="3120">0.37</text><text class="table-r" x="760" y="3120">¯0.14</text><text x="140" y="3154">Vega</text><text class="table-r" x="420" y="3154">23</text><text class="table-r" x="520" y="3154">58</text><text class="table-r" x="640" y="3154">¯0.56</text><text class="table-r" x="760" y="3154">0.36</text><text x="140" y="3188">aSco</text><text class="table-r" x="420" y="3188">11</text><text class="table-r" x="520" y="3188">132</text><text class="table-r" x="640" y="3188">¯0.62</text><text class="table-r" x="760" y="3188">¯0.56</text><text x="140" y="3222">Spica</text><text class="table-r" x="420" y="3222">44</text><text class="table-r" x="520" y="3222">168</text><text class="table-r" x="640" y="3222">¯0.09</text><text class="table-r" x="760" y="3222">¯0.41</text></g></svg>
